<svg width="24" height="24" viewBox="0 0 24 24" fill="none" xmlns="http://www.w3.org/2000/svg">
<path d="M15.2038 14.7999L16.3538 10.6499L12.8038 8.19991L11.6538 12.3499L15.2038 14.7999ZM4.00381 18.8249L3.17881 18.4249C2.66215 18.2082 2.31215 17.8374 2.12881 17.3124C1.94548 16.7874 1.97048 16.2666 2.20381 15.7499L4.00381 11.8499V18.8249ZM8.00381 20.9999C7.45381 20.9999 6.98298 20.7999 6.59131 20.3999C6.19965 19.9999 6.00381 19.5249 6.00381 18.9749V12.9999L8.67881 20.3499C8.72881 20.4666 8.77048 20.5791 8.80381 20.6874C8.83715 20.7957 8.89548 20.8999 8.97881 20.9999H8.00381ZM13.1538 20.8749C12.6371 21.0582 12.1205 21.0332 11.6038 20.7999C11.0871 20.5666 10.7371 20.1916 10.5538 19.6749L6.12881 7.44991C5.94548 6.93324 5.97048 6.42074 6.20381 5.91241C6.43715 5.40407 6.81215 5.05824 7.32881 4.87491L14.8538 2.12491C15.3705 1.94157 15.883 1.96657 16.3913 2.19991C16.8996 2.43324 17.2455 2.80824 17.4288 3.32491L21.8788 15.5499C22.0621 16.0666 22.0371 16.5791 21.8038 17.0874C21.5705 17.5957 21.1955 17.9416 20.6788 18.1249L13.1538 20.8749ZM12.4538 18.9999L20.0038 16.2499L15.5288 3.99991L8.00381 6.74991L12.4538 18.9999Z" fill="#FDFBFF"/>
</svg>
